<svg width="120" height="28" viewBox="0 0 120 28" fill="none" xmlns="http://www.w3.org/2000/svg">
<path d="M13.0293 13.0898L7.82045 4.03642C7.08001 2.7495 7.51942 1.10391 8.80189 0.3609C10.0844 -0.382107 11.7242 0.0588258 12.4647 1.34575L19.9106 14.2872C20.2076 14.8035 20.3148 15.3775 20.2538 15.9278C20.1776 17.3453 19.008 18.4711 17.5764 18.4711H2.68461C1.20374 18.4711 0.00325334 17.2664 0.00325334 15.7804C0.00325334 14.2944 1.20373 13.0898 2.6846 13.0898H13.0293Z" fill="url(#paint0_linear_323_438)"/>
<path d="M0 24.3842C0 25.8736 1.20325 27.081 2.68753 27.081H17.581C19.0652 27.081 20.2685 25.8736 20.2685 24.3842C20.2685 22.8947 19.0652 21.6873 17.581 21.6873H2.68753C1.20325 21.6873 0 22.8947 0 24.3842Z" fill="url(#paint1_linear_323_438)"/>
<path d="M29.6758 7.80743H36.5913C37.9244 7.80743 38.959 8.14122 39.695 8.80879C40.4448 9.47637 40.8198 10.4499 40.8198 11.7294C40.8198 12.4109 40.6531 13.0298 40.3199 13.5861C40.0005 14.1285 39.57 14.5458 39.0284 14.8378C40.542 15.3385 41.2989 16.4581 41.2989 18.1966C41.2989 19.0588 41.1045 19.8099 40.7156 20.4496C40.3268 21.0755 39.7991 21.5553 39.1326 21.8891C38.4799 22.2229 37.7508 22.3898 36.9454 22.3898H29.6758V7.80743ZM36.1747 13.8782C36.7718 13.8782 37.2509 13.7182 37.612 13.3984C37.973 13.0646 38.1536 12.5639 38.1536 11.8963C38.1536 11.1314 37.973 10.6099 37.612 10.3317C37.2648 10.0396 36.7441 9.8936 36.0497 9.8936H32.3003V13.8782H36.1747ZM36.3414 20.3036C37.0773 20.3036 37.6397 20.1506 38.0286 19.8446C38.4313 19.5387 38.6326 18.9963 38.6326 18.2174C38.6326 17.4386 38.4243 16.8753 38.0077 16.5276C37.5911 16.1799 36.9871 16.0061 36.1955 16.0061H32.3003V20.3036H36.3414Z" fill="white"/>
<path d="M46.5731 22.7027C45.3788 22.7027 44.3998 22.3898 43.636 21.7639C42.8723 21.1242 42.4904 20.2688 42.4904 19.1979C42.4904 18.0853 42.8515 17.2161 43.5736 16.5902C44.2957 15.9644 45.3094 15.6514 46.6147 15.6514C47.8784 15.6514 48.9685 15.9087 49.885 16.4233V16.1521C49.885 15.4428 49.6628 14.9282 49.2185 14.6083C48.788 14.2885 48.0867 14.1285 47.1146 14.1285C46.5036 14.1285 45.8996 14.1911 45.3024 14.3163C44.7053 14.4275 44.1776 14.5875 43.7194 14.7961V12.7308C44.136 12.5361 44.6914 12.3761 45.3858 12.251C46.094 12.1258 46.7744 12.0632 47.4271 12.0632C49.1629 12.0632 50.4474 12.4387 51.2806 13.1898C52.1138 13.9269 52.5304 14.956 52.5304 16.2773V22.3898H50.0517V21.4093C49.6212 21.8265 49.1282 22.1464 48.5727 22.3689C48.0312 22.5914 47.3646 22.7027 46.5731 22.7027ZM47.2188 20.7834C47.802 20.7834 48.3297 20.6721 48.8019 20.4496C49.274 20.2132 49.6351 19.8933 49.885 19.49V18.3843C49.1213 17.8419 48.2464 17.5707 47.2605 17.5707C45.8579 17.5707 45.1566 18.1131 45.1566 19.1979C45.1566 19.7264 45.3302 20.1228 45.6774 20.387C46.0384 20.6513 46.5522 20.7834 47.2188 20.7834Z" fill="white"/>
<path d="M59.3032 22.7027C58.2895 22.7027 57.3799 22.4871 56.5745 22.056C55.783 21.6109 55.1581 20.992 54.6998 20.1993C54.2554 19.3926 54.0333 18.4608 54.0333 17.4038C54.0333 16.3607 54.2554 15.4359 54.6998 14.6292C55.1581 13.8226 55.783 13.1967 56.5745 12.7517C57.3799 12.2927 58.2895 12.0632 59.3032 12.0632C60.9418 12.0632 62.2333 12.4944 63.1776 13.3566V6.97296H65.8022V22.3898H63.2609V21.2215C62.6916 21.75 62.1014 22.1325 61.4904 22.3689C60.8794 22.5914 60.1503 22.7027 59.3032 22.7027ZM59.949 20.6374C60.6988 20.6374 61.3654 20.4357 61.9486 20.0324C62.5319 19.6291 62.9415 19.0867 63.1776 18.4052V16.3816C62.9554 15.7001 62.5458 15.1577 61.9486 14.7544C61.3654 14.3371 60.6988 14.1285 59.949 14.1285C59.0047 14.1285 58.227 14.4345 57.616 15.0464C57.005 15.6584 56.6995 16.4442 56.6995 17.4038C56.6995 18.3635 57.005 19.1423 57.616 19.7403C58.227 20.3384 59.0047 20.6374 59.949 20.6374Z" fill="white"/>
<path d="M69.3024 10.6238C68.8858 10.6238 68.5317 10.4847 68.2401 10.2065C67.9623 9.92837 67.8235 9.58067 67.8235 9.16344C67.8235 8.74621 67.9623 8.39851 68.2401 8.12035C68.5317 7.82829 68.8858 7.68226 69.3024 7.68226C69.719 7.68226 70.0731 7.82829 70.3647 8.12035C70.6563 8.39851 70.8022 8.74621 70.8022 9.16344C70.8022 9.58067 70.6563 9.92837 70.3647 10.2065C70.0731 10.4847 69.719 10.6238 69.3024 10.6238ZM67.9693 12.3761H70.6355V22.3898H67.9693V12.3761Z" fill="white"/>
<path d="M78.2529 22.7027C77.0864 22.7027 76.0588 22.4941 75.1701 22.0768C74.2952 21.6596 73.6148 21.0546 73.1288 20.2619C72.6427 19.4691 72.3997 18.5164 72.3997 17.4038C72.3997 16.2912 72.6427 15.3385 73.1288 14.5458C73.6287 13.7391 74.3161 13.1272 75.1909 12.7099C76.0797 12.2788 77.1142 12.0632 78.2946 12.0632C79.8499 12.0632 81.0927 12.3692 82.0231 12.9811V15.0882C81.1205 14.4484 79.9679 14.1285 78.5654 14.1285C77.4961 14.1285 76.6421 14.3997 76.0033 14.9421C75.3784 15.4706 75.0659 16.2912 75.0659 17.4038C75.0659 18.5025 75.3784 19.3161 76.0033 19.8446C76.6421 20.3731 77.4822 20.6374 78.5237 20.6374C79.9262 20.6374 81.1344 20.3036 82.1481 19.636V21.7222C81.6482 22.056 81.0788 22.2994 80.44 22.4524C79.8152 22.6192 79.0861 22.7027 78.2529 22.7027Z" fill="white"/>
<path d="M88.8804 22.7027C87.7139 22.7027 86.6863 22.4941 85.7976 22.0768C84.9227 21.6457 84.2423 21.0338 83.7562 20.241C83.2702 19.4344 83.0272 18.4817 83.0272 17.383C83.0272 16.3121 83.2633 15.3802 83.7354 14.5875C84.2214 13.7808 84.9088 13.1619 85.7976 12.7308C86.6863 12.2857 87.7139 12.0632 88.8804 12.0632C90.0469 12.0632 91.0675 12.2857 91.9424 12.7308C92.8311 13.1619 93.5185 13.7808 94.0045 14.5875C94.4906 15.3802 94.7336 16.3121 94.7336 17.383C94.7336 18.4817 94.4906 19.4344 94.0045 20.241C93.5185 21.0338 92.8311 21.6457 91.9424 22.0768C91.0675 22.4941 90.0469 22.7027 88.8804 22.7027ZM88.8804 20.6374C89.8386 20.6374 90.6023 20.3384 91.1717 19.7403C91.741 19.1284 92.0257 18.3426 92.0257 17.383C92.0257 16.3677 91.741 15.5749 91.1717 15.0047C90.6162 14.4206 89.8525 14.1285 88.8804 14.1285C87.9083 14.1285 87.1376 14.4206 86.5683 15.0047C86.0128 15.5749 85.7351 16.3677 85.7351 17.383C85.7351 18.3426 86.0198 19.1284 86.5891 19.7403C87.1585 20.3384 87.9222 20.6374 88.8804 20.6374Z" fill="white"/>
<path d="M100.877 22.7027C99.8637 22.7027 98.9541 22.4871 98.1487 22.056C97.3572 21.6109 96.7323 20.992 96.274 20.1993C95.8297 19.3926 95.6075 18.4608 95.6075 17.4038C95.6075 16.3607 95.8297 15.4359 96.274 14.6292C96.7323 13.8226 97.3572 13.1967 98.1487 12.7517C98.9541 12.2927 99.8637 12.0632 100.877 12.0632C102.516 12.0632 103.808 12.4944 104.752 13.3566V6.97296H107.376V22.3898H104.835V21.2215C104.266 21.75 103.676 22.1325 103.065 22.3689C102.454 22.5914 101.725 22.7027 100.877 22.7027ZM101.523 20.6374C102.273 20.6374 102.94 20.4357 103.523 20.0324C104.106 19.6291 104.516 19.0867 104.752 18.4052V16.3816C104.53 15.7001 104.12 15.1577 103.523 14.7544C102.94 14.3371 102.273 14.1285 101.523 14.1285C100.579 14.1285 99.8012 14.4345 99.1902 15.0464C98.5792 15.6584 98.2737 16.4442 98.2737 17.4038C98.2737 18.3635 98.5792 19.1423 99.1902 19.7403C99.8012 20.3384 100.579 20.6374 101.523 20.6374Z" fill="white"/>
<path d="M115.022 22.7027C113.161 22.7027 111.689 22.2368 110.606 21.305C109.523 20.3731 108.981 19.0728 108.981 17.4038C108.981 15.7627 109.46 14.4623 110.418 13.5027C111.377 12.543 112.744 12.0632 114.522 12.0632C115.688 12.0632 116.681 12.2857 117.501 12.7308C118.334 13.1758 118.959 13.7878 119.375 14.5666C119.792 15.3316 120 16.2077 120 17.1952V18.4052H111.481C111.661 19.8933 112.953 20.6374 115.355 20.6374C115.994 20.6374 116.646 20.5818 117.313 20.4705C117.98 20.3592 118.563 20.2062 119.063 20.0115V22.0351C118.591 22.2298 117.98 22.3898 117.23 22.5149C116.494 22.6401 115.758 22.7027 115.022 22.7027ZM117.521 16.6111C117.494 15.8183 117.209 15.2064 116.667 14.7752C116.14 14.3441 115.411 14.1285 114.48 14.1285C113.564 14.1285 112.842 14.3511 112.314 14.7961C111.786 15.2412 111.508 15.8461 111.481 16.6111H117.521Z" fill="white"/>
<defs>
<linearGradient id="paint0_linear_323_438" x1="1.61133" y1="-3.71291" x2="22.0088" y2="32.6397" gradientUnits="userSpaceOnUse">
<stop stop-color="#2ADECF"/>
<stop offset="1" stop-color="#286A8F"/>
</linearGradient>
<linearGradient id="paint1_linear_323_438" x1="1.61133" y1="-3.71291" x2="22.0088" y2="32.6397" gradientUnits="userSpaceOnUse">
<stop stop-color="#2ADECF"/>
<stop offset="1" stop-color="#286A8F"/>
</linearGradient>
</defs>
</svg>
